<?xml version="1.0" encoding="UTF-8"?>
<svg id="Layer_1" data-name="Layer 1" xmlns="http://www.w3.org/2000/svg" viewBox="0 0 328.86 81.97">
  <defs>
    <style>
      .cls-1 {
        fill: #231f20;
        stroke-width: 0px;
      }
    </style>
  </defs>
  <polygon class="cls-1" points="67.75 2.09 67.75 81.28 54.37 81.28 54.37 53.95 13.38 26.49 13.38 81.28 0 81.28 0 0 54.37 37.78 54.37 2.09 67.75 2.09"/>
  <path class="cls-1" d="m164.64,41.54c0,22.31-18.12,40.43-40.43,40.43s-40.43-18.12-40.43-40.43S101.91,1.12,124.21,1.12s40.43,18.12,40.43,40.43m-13.38.42c0-15.89-11.29-28.58-27.18-28.58s-26.91,12.69-26.91,28.58,11.01,28.44,26.91,28.44,27.18-12.55,27.18-28.44"/>
  <polygon class="cls-1" points="235.04 81.28 210.23 40.29 194.06 57.86 194.06 81.28 180.67 81.28 180.67 2.09 194.06 2.09 194.06 38.48 227.09 2.09 245.36 2.09 219.43 30.25 250.79 81.28 235.04 81.28"/>
  <path class="cls-1" d="m262.5,46.42V2.09h13.38v44.33c0,16.03,5.3,23.98,19.8,23.98s19.8-7.95,19.8-23.98V2.09h13.38v44.33c0,21.89-11.15,35.55-33.04,35.55s-33.32-13.66-33.32-35.55"/>
</svg>